<svg
  width="655"
  height="631"
  viewBox="0 0 655 631"
  fill="none"
  xmlns="http://www.w3.org/2000/svg"
>
  <path
    fill-rule="evenodd"
    clip-rule="evenodd"
    d="M434.383 -56.7425C488.572 -51.0509 532.808 -108.86 587.21 -105.072C639.719 -101.416 681.626 -64.9809 723.391 -36.6194C766.928 -7.05417 822.432 19.2934 838.621 65.6569C855.353 113.577 829.415 165.465 810.458 212.733C794.56 252.375 741.615 277.721 736.794 319.562C730.648 372.916 812.72 429.03 780.316 474.375C749.619 517.332 660.978 470.479 611.001 495.593C563.505 519.46 558.972 585.016 511.764 609.325C465.206 633.3 406.835 627.981 352.952 628.474C293.124 629.022 227.126 639.747 175.92 612.401C124.792 585.096 105.092 528.451 77.7586 481.51C52.8519 438.737 34.2722 394.096 21.5652 347.321C9.1332 301.559 -7.30021 254.328 3.52266 208.247C14.2247 162.681 68.8188 133.597 82.3269 88.6174C99.5757 31.1814 53.2763 -39.6179 92.4628 -87.9099C128.428 -132.232 205.411 -144.321 266.804 -138.724C330.861 -132.885 370.436 -63.4589 434.383 -56.7425Z"
    fill="#2e7d32"
    fill-opacity="0.47"
  />
</svg>
